Oxygen-Bold.ufo
<glyph name="quotedbl" format="1">
  <advance width="784"/>
  <unicode hex="0022"/>
  <outline>
    <contour>
      <point x="487" y="955" type="line" smooth="no"/>
      <point x="454" y="1470" type="line" smooth="no"/>
      <point x="677" y="1470" type="line" smooth="no"/>
      <point x="646" y="955" type="line" smooth="no"/>
    </contour>
    <contour>
      <point x="143" y="955" type="line" smooth="no"/>
      <point x="108" y="1470" type="line" smooth="no"/>
      <point x="332" y="1470" type="line" smooth="no"/>
      <point x="302" y="955" type="line" smooth="no"/>
    </contour>
  </outline>
</glyph>
<glyph name="dollar" format="1">
  <advance width="1194"/>
  <unicode hex="0024"/>
  <outline>
    <contour>
      <point x="656" y="208" type="line" smooth="no"/>
      <point x="779" y="228"/>
      <point x="841" y="300"/>
      <point x="841" y="416" type="curve" smooth="yes"/>
      <point x="841" y="504"/>
      <point x="787" y="562"/>
      <point x="686" y="596" type="curve" smooth="yes"/>
      <point x="680" y="599"/>
      <point x="661" y="604"/>
      <point x="656" y="606" type="curve" smooth="no"/>
    </contour>
    <contour>
      <point x="558" y="911" type="curve" smooth="no"/>
      <point x="558" y="1267" type="line" smooth="no"/>
      <point x="447" y="1253"/>
      <point x="386" y="1200"/>
      <point x="381" y="1088" type="curve" smooth="no"/>
      <point x="381" y="1005"/>
      <point x="426" y="952"/>
      <point x="502" y="929" type="curve" smooth="yes"/>
      <point x="513" y="925"/>
      <point x="545" y="915"/>
    </contour>
    <contour>
      <point x="558" y="-212" type="line" smooth="no"/>
      <point x="556" y="-20" type="line" smooth="no"/>
      <point x="366" y="-18"/>
      <point x="217" y="31"/>
      <point x="94" y="102" type="curve" smooth="no"/>
      <point x="160" y="317" type="line" smooth="no"/>
      <point x="274" y="254"/>
      <point x="419" y="206"/>
      <point x="558" y="202" type="curve" smooth="no"/>
      <point x="558" y="636" type="line" smooth="no"/>
      <point x="514" y="649"/>
      <point x="429" y="675"/>
      <point x="396" y="688" type="curve" smooth="no"/>
      <point x="217" y="751"/>
      <point x="101" y="870"/>
      <point x="101" y="1076" type="curve" smooth="yes"/>
      <point x="101" y="1329"/>
      <point x="287" y="1471"/>
      <point x="558" y="1489" type="curve" smooth="no"/>
      <point x="558" y="1643" type="line" smooth="no"/>
      <point x="656" y="1643" type="line" smooth="no"/>
      <point x="656" y="1491" type="line" smooth="no"/>
      <point x="816" y="1486"/>
      <point x="953" y="1451"/>
      <point x="1075" y="1382" type="curve" smooth="no"/>
      <point x="993" y="1184" type="line" smooth="no"/>
      <point x="899" y="1226"/>
      <point x="778" y="1266"/>
      <point x="656" y="1271" type="curve" smooth="no"/>
      <point x="656" y="878" type="line" smooth="no"/>
      <point x="674" y="871"/>
      <point x="720" y="858"/>
      <point x="742" y="851" type="curve" smooth="yes"/>
      <point x="1005" y="765"/>
      <point x="1116" y="651"/>
      <point x="1116" y="414" type="curve" smooth="yes"/>
      <point x="1116" y="156"/>
      <point x="934" y="9"/>
      <point x="656" y="-16" type="curve" smooth="no"/>
      <point x="656" y="-212" type="line" smooth="no"/>
    </contour>
  </outline>
</glyph>
<glyph name="ampersand" format="1">
  <advance width="1436"/>
  <unicode hex="0026"/>
  <outline>
    <contour>
      <point x="571" y="924" type="curve" smooth="no"/>
      <point x="674" y="979"/>
      <point x="781" y="1045"/>
      <point x="781" y="1166" type="curve" smooth="yes"/>
      <point x="781" y="1268"/>
      <point x="710" y="1315"/>
      <point x="619" y="1315" type="curve" smooth="yes"/>
      <point x="520" y="1315"/>
      <point x="451" y="1266"/>
      <point x="451" y="1160" type="curve" smooth="yes"/>
      <point x="451" y="1066"/>
      <point x="506" y="991"/>
    </contour>
    <contour>
      <point x="587" y="168" type="curve" smooth="yes"/>
      <point x="702" y="168"/>
      <point x="817" y="209"/>
      <point x="899" y="276" type="curve" smooth="no"/>
      <point x="862" y="316"/>
      <point x="545" y="661"/>
      <point x="508" y="701" type="curve" smooth="no"/>
      <point x="391" y="635"/>
      <point x="289" y="570"/>
      <point x="289" y="426" type="curve" smooth="yes"/>
      <point x="289" y="249"/>
      <point x="421" y="168"/>
    </contour>
    <contour>
      <point x="580" y="-23" type="curve" smooth="yes"/>
      <point x="306" y="-23"/>
      <point x="58" y="101"/>
      <point x="58" y="404" type="curve" smooth="yes"/>
      <point x="58" y="623"/>
      <point x="219" y="737"/>
      <point x="395" y="831" type="curve" smooth="no"/>
      <point x="311" y="926"/>
      <point x="230" y="1019"/>
      <point x="230" y="1150" type="curve" smooth="yes"/>
      <point x="230" y="1379"/>
      <point x="409" y="1485"/>
      <point x="612" y="1485" type="curve" smooth="yes"/>
      <point x="801" y="1485"/>
      <point x="1009" y="1392"/>
      <point x="1009" y="1168" type="curve" smooth="yes"/>
      <point x="1009" y="978"/>
      <point x="844" y="864"/>
      <point x="687" y="786" type="curve" smooth="no"/>
      <point x="1037" y="404" type="line" smooth="no"/>
      <point x="1095" y="467"/>
      <point x="1151" y="556"/>
      <point x="1191" y="634" type="curve" smooth="no"/>
      <point x="1361" y="521" type="line" smooth="no"/>
      <point x="1314" y="430"/>
      <point x="1248" y="331"/>
      <point x="1181" y="256" type="curve" smooth="no"/>
      <point x="1388" y="37" type="line" smooth="no"/>
      <point x="1375" y="33"/>
      <point x="1191" y="-12"/>
      <point x="1178" y="-16" type="curve" smooth="no"/>
      <point x="1036" y="133" type="line" smooth="no"/>
      <point x="903" y="32"/>
      <point x="747" y="-23"/>
    </contour>
  </outline>
</glyph>
<glyph name="hyphen" format="1">
  <advance width="677"/>
  <unicode hex="002d"/>
  <outline>
    <contour>
      <point x="70" y="445" type="line" smooth="no"/>
      <point x="70" y="649" type="line" smooth="no"/>
      <point x="606" y="649" type="line" smooth="no"/>
      <point x="606" y="445" type="line" smooth="no"/>
    </contour>
  </outline>
</glyph>
<glyph name="two" format="1">
  <advance width="1054"/>
  <unicode hex="0032"/>
  <outline>
    <contour>
      <point x="85" y="0" type="line" smooth="no"/>
      <point x="79" y="216" type="line" smooth="no"/>
      <point x="542" y="740" type="line" smooth="no"/>
      <point x="652" y="858"/>
      <point x="707" y="954"/>
      <point x="707" y="1073" type="curve" smooth="yes"/>
      <point x="707" y="1200"/>
      <point x="615" y="1281"/>
      <point x="482" y="1281" type="curve" smooth="yes"/>
      <point x="353" y="1281"/>
      <point x="224" y="1226"/>
      <point x="150" y="1160" type="curve" smooth="no"/>
      <point x="75" y="1358" type="line" smooth="no"/>
      <point x="177" y="1448"/>
      <point x="313" y="1490"/>
      <point x="497" y="1490" type="curve" smooth="yes"/>
      <point x="776" y="1490"/>
      <point x="976" y="1346"/>
      <point x="976" y="1075" type="curve" smooth="yes"/>
      <point x="976" y="869"/>
      <point x="841" y="696"/>
      <point x="698" y="547" type="curve" smooth="no"/>
      <point x="368" y="197" type="line" smooth="no"/>
      <point x="959" y="197" type="line" smooth="no"/>
      <point x="941" y="0" type="line" smooth="no"/>
    </contour>
  </outline>
</glyph>
<glyph name="five" format="1">
  <advance width="1138"/>
  <unicode hex="0035"/>
  <outline>
    <contour>
      <point x="542" y="-21" type="curve" smooth="yes"/>
      <point x="323" y="-21"/>
      <point x="127" y="99"/>
      <point x="105" y="119" type="curve" smooth="no"/>
      <point x="185" y="307" type="line" smooth="no"/>
      <point x="201" y="294"/>
      <point x="347" y="189"/>
      <point x="515" y="189" type="curve" smooth="yes"/>
      <point x="709" y="189"/>
      <point x="799" y="311"/>
      <point x="799" y="471" type="curve" smooth="yes"/>
      <point x="799" y="631"/>
      <point x="702" y="734"/>
      <point x="564" y="734" type="curve" smooth="yes"/>
      <point x="488" y="734"/>
      <point x="409" y="700"/>
      <point x="342" y="626" type="curve" smooth="no"/>
      <point x="167" y="660" type="line" smooth="no"/>
      <point x="205" y="1458" type="line" smooth="no"/>
      <point x="1001" y="1458" type="line" smooth="no"/>
      <point x="986" y="1252" type="line" smooth="no"/>
      <point x="437" y="1252" type="line" smooth="no"/>
      <point x="436" y="1216"/>
      <point x="424" y="927"/>
      <point x="423" y="890" type="curve" smooth="no"/>
      <point x="485" y="923"/>
      <point x="548" y="937"/>
      <point x="608" y="937" type="curve" smooth="yes"/>
      <point x="878" y="937"/>
      <point x="1057" y="745"/>
      <point x="1057" y="468" type="curve" smooth="yes"/>
      <point x="1057" y="178"/>
      <point x="874" y="-21"/>
    </contour>
  </outline>
</glyph>
<glyph name="seven" format="1">
  <advance width="1036"/>
  <unicode hex="0037"/>
  <outline>
    <contour>
      <point x="237" y="0" type="line" smooth="no"/>
      <point x="679" y="1258" type="line" smooth="no"/>
      <point x="75" y="1258" type="line" smooth="no"/>
      <point x="77" y="1459" type="line" smooth="no"/>
      <point x="977" y="1459" type="line" smooth="no"/>
      <point x="977" y="1302" type="line" smooth="no"/>
      <point x="505" y="0" type="line" smooth="no"/>
    </contour>
  </outline>
</glyph>
<glyph name="B" format="1">
  <advance width="1333"/>
  <unicode hex="0042"/>
  <outline>
    <contour>
      <point x="429" y="860" type="line" smooth="no"/>
      <point x="661" y="860" type="line" smooth="yes"/>
      <point x="836" y="860"/>
      <point x="930" y="922"/>
      <point x="930" y="1065" type="curve" smooth="yes"/>
      <point x="930" y="1226"/>
      <point x="819" y="1266"/>
      <point x="606" y="1266" type="curve" smooth="yes"/>
      <point x="429" y="1266" type="line" smooth="no"/>
    </contour>
    <contour>
      <point x="429" y="196" type="line" smooth="no"/>
      <point x="664" y="196" type="line" smooth="yes"/>
      <point x="869" y="196"/>
      <point x="976" y="272"/>
      <point x="976" y="440" type="curve" smooth="yes"/>
      <point x="976" y="607"/>
      <point x="870" y="671"/>
      <point x="657" y="671" type="curve" smooth="yes"/>
      <point x="429" y="671" type="line" smooth="no"/>
    </contour>
    <contour>
      <point x="158" y="0" type="line" smooth="no"/>
      <point x="158" y="1465" type="line" smooth="no"/>
      <point x="615" y="1465" type="line" smooth="yes"/>
      <point x="990" y="1465"/>
      <point x="1192" y="1369"/>
      <point x="1192" y="1097" type="curve" smooth="yes"/>
      <point x="1192" y="1004"/>
      <point x="1164" y="843"/>
      <point x="973" y="782" type="curve" smooth="no"/>
      <point x="1156" y="737"/>
      <point x="1253" y="605"/>
      <point x="1253" y="425" type="curve" smooth="yes"/>
      <point x="1253" y="145"/>
      <point x="1041" y="0"/>
      <point x="701" y="0" type="curve" smooth="yes"/>
    </contour>
  </outline>
</glyph>
<glyph name="F" format="1">
  <advance width="1103"/>
  <unicode hex="0046"/>
  <outline>
    <contour>
      <point x="158" y="0" type="line" smooth="no"/>
      <point x="158" y="1465" type="line" smooth="no"/>
      <point x="1025" y="1465" type="line" smooth="no"/>
      <point x="1015" y="1250" type="line" smooth="no"/>
      <point x="427" y="1250" type="line" smooth="no"/>
      <point x="427" y="834" type="line" smooth="no"/>
      <point x="986" y="834" type="line" smooth="no"/>
      <point x="986" y="621" type="line" smooth="no"/>
      <point x="427" y="621" type="line" smooth="no"/>
      <point x="427" y="0" type="line" smooth="no"/>
    </contour>
  </outline>
</glyph>
<glyph name="K" format="1">
  <advance width="1348"/>
  <unicode hex="004b"/>
  <outline>
    <contour>
      <point x="157" y="0" type="line" smooth="no"/>
      <point x="157" y="1465" type="line" smooth="no"/>
      <point x="429" y="1465" type="line" smooth="no"/>
      <point x="429" y="805" type="line" smooth="no"/>
      <point x="553" y="969"/>
      <point x="852" y="1306"/>
      <point x="981" y="1465" type="curve" smooth="no"/>
      <point x="1302" y="1465" type="line" smooth="no"/>
      <point x="748" y="806" type="line" smooth="no"/>
      <point x="1337" y="0" type="line" smooth="no"/>
      <point x="1019" y="0" type="line" smooth="no"/>
      <point x="541" y="657" type="line" smooth="no"/>
      <point x="429" y="563" type="line" smooth="no"/>
      <point x="429" y="0" type="line" smooth="no"/>
    </contour>
  </outline>
</glyph>
<glyph name="M" format="1">
  <advance width="1841"/>
  <unicode hex="004d"/>
  <outline>
    <contour>
      <point x="158" y="0" type="line" smooth="no"/>
      <point x="158" y="1465" type="line" smooth="no"/>
      <point x="478" y="1465" type="line" smooth="no"/>
      <point x="921" y="407" type="line" smooth="no"/>
      <point x="1367" y="1465" type="line" smooth="no"/>
      <point x="1683" y="1465" type="line" smooth="no"/>
      <point x="1683" y="0" type="line" smooth="no"/>
      <point x="1433" y="0" type="line" smooth="no"/>
      <point x="1433" y="724" type="line" smooth="no"/>
      <point x="1441" y="1139" type="line" smooth="no"/>
      <point x="1404" y="1029" type="line" smooth="no"/>
      <point x="1029" y="100" type="line" smooth="no"/>
      <point x="797" y="100" type="line" smooth="no"/>
      <point x="430" y="1034" type="line" smooth="no"/>
      <point x="393" y="1144" type="line" smooth="no"/>
      <point x="402" y="720" type="line" smooth="no"/>
      <point x="402" y="0" type="line" smooth="no"/>
    </contour>
  </outline>
</glyph>
<glyph name="R" format="1">
  <advance width="1394"/>
  <unicode hex="0052"/>
  <outline>
    <contour>
      <point x="718" y="824" type="curve" smooth="yes"/>
      <point x="928" y="824"/>
      <point x="1010" y="895"/>
      <point x="1010" y="1058" type="curve" smooth="yes"/>
      <point x="1010" y="1202"/>
      <point x="919" y="1268"/>
      <point x="730" y="1268" type="curve" smooth="yes"/>
      <point x="419" y="1268" type="line" smooth="no"/>
      <point x="419" y="825" type="line" smooth="no"/>
      <point x="450" y="825"/>
      <point x="687" y="824"/>
    </contour>
    <contour>
      <point x="151" y="0" type="line" smooth="no"/>
      <point x="151" y="1469" type="line" smooth="no"/>
      <point x="694" y="1469" type="line" smooth="yes"/>
      <point x="1040" y="1469"/>
      <point x="1259" y="1399"/>
      <point x="1259" y="1062" type="curve" smooth="yes"/>
      <point x="1259" y="865"/>
      <point x="1164" y="737"/>
      <point x="994" y="678" type="curve" smooth="no"/>
      <point x="1042" y="623"/>
      <point x="1085" y="540"/>
      <point x="1128" y="452" type="curve" smooth="yes"/>
      <point x="1346" y="0" type="line" smooth="no"/>
      <point x="1050" y="0" type="line" smooth="no"/>
      <point x="879" y="383" type="line" smooth="no"/>
      <point x="841" y="464"/>
      <point x="767" y="614"/>
      <point x="759" y="627" type="curve" smooth="no"/>
      <point x="742" y="628"/>
      <point x="687" y="628"/>
      <point x="646" y="628" type="curve" smooth="yes"/>
      <point x="641" y="628"/>
      <point x="419" y="630"/>
      <point x="419" y="630" type="curve" smooth="no"/>
      <point x="419" y="0" type="line" smooth="no"/>
    </contour>
  </outline>
</glyph>
<glyph name="T" format="1">
  <advance width="1152"/>
  <unicode hex="0054"/>
  <outline>
    <contour>
      <point x="441" y="0" type="line" smooth="no"/>
      <point x="441" y="1248" type="line" smooth="no"/>
      <point x="14" y="1248" type="line" smooth="no"/>
      <point x="14" y="1465" type="line" smooth="no"/>
      <point x="1138" y="1465" type="line" smooth="no"/>
      <point x="1138" y="1248" type="line" smooth="no"/>
      <point x="713" y="1248" type="line" smooth="no"/>
      <point x="713" y="0" type="line" smooth="no"/>
    </contour>
  </outline>
</glyph>
<glyph name="W" format="1">
  <advance width="2051"/>
  <unicode hex="0057"/>
  <outline>
    <contour>
      <point x="408" y="0" type="line" smooth="no"/>
      <point x="10" y="1465" type="line" smooth="no"/>
      <point x="280" y="1465" type="line" smooth="no"/>
      <point x="564" y="325" type="line" smooth="no"/>
      <point x="898" y="1458" type="line" smooth="no"/>
      <point x="1157" y="1458" type="line" smooth="no"/>
      <point x="1474" y="321" type="line" smooth="no"/>
      <point x="1764" y="1465" type="line" smooth="no"/>
      <point x="2034" y="1465" type="line" smooth="no"/>
      <point x="1624" y="0" type="line" smooth="no"/>
      <point x="1343" y="0" type="line" smooth="no"/>
      <point x="1030" y="1073" type="line" smooth="no"/>
      <point x="687" y="0" type="line" smooth="no"/>
    </contour>
  </outline>
</glyph>
<glyph name="X" format="1">
  <advance width="1337"/>
  <unicode hex="0058"/>
  <outline>
    <contour>
      <point x="-11" y="0" type="line" smooth="no"/>
      <point x="502" y="750" type="line" smooth="no"/>
      <point x="27" y="1465" type="line" smooth="no"/>
      <point x="332" y="1465" type="line" smooth="no"/>
      <point x="677" y="919" type="line" smooth="no"/>
      <point x="1032" y="1465" type="line" smooth="no"/>
      <point x="1321" y="1465" type="line" smooth="no"/>
      <point x="836" y="746" type="line" smooth="no"/>
      <point x="1347" y="0" type="line" smooth="no"/>
      <point x="1034" y="0" type="line" smooth="no"/>
      <point x="664" y="570" type="line" smooth="no"/>
      <point x="286" y="0" type="line" smooth="no"/>
    </contour>
  </outline>
</glyph>
<glyph name="Y" format="1">
  <advance width="1256"/>
  <unicode hex="0059"/>
  <outline>
    <contour>
      <point x="492" y="0" type="line" smooth="no"/>
      <point x="492" y="581" type="line" smooth="no"/>
      <point x="-15" y="1465" type="line" smooth="no"/>
      <point x="279" y="1465" type="line" smooth="no"/>
      <point x="628" y="831" type="line" smooth="no"/>
      <point x="979" y="1465" type="line" smooth="no"/>
      <point x="1269" y="1465" type="line" smooth="no"/>
      <point x="764" y="586" type="line" smooth="no"/>
      <point x="764" y="0" type="line" smooth="no"/>
    </contour>
  </outline>
</glyph>
<glyph name="Z" format="1">
  <advance width="1209"/>
  <unicode hex="005a"/>
  <outline>
    <contour>
      <point x="62" y="0" type="line" smooth="no"/>
      <point x="62" y="174" type="line" smooth="no"/>
      <point x="835" y="1249" type="line" smooth="no"/>
      <point x="89" y="1249" type="line" smooth="no"/>
      <point x="89" y="1465" type="line" smooth="no"/>
      <point x="1155" y="1465" type="line" smooth="no"/>
      <point x="1155" y="1268" type="line" smooth="no"/>
      <point x="396" y="216" type="line" smooth="no"/>
      <point x="1160" y="216" type="line" smooth="no"/>
      <point x="1159" y="0" type="line" smooth="no"/>
    </contour>
  </outline>
</glyph>
<glyph name="bracketright" format="1">
  <advance width="651"/>
  <unicode hex="005d"/>
  <outline>
    <contour>
      <point x="52" y="-266" type="line" smooth="no"/>
      <point x="52" y="-85" type="line" smooth="no"/>
      <point x="263" y="-85" type="line" smooth="no"/>
      <point x="263" y="1327" type="line" smooth="no"/>
      <point x="52" y="1327" type="line" smooth="no"/>
      <point x="52" y="1507" type="line" smooth="no"/>
      <point x="516" y="1507" type="line" smooth="no"/>
      <point x="516" y="-266" type="line" smooth="no"/>
    </contour>
  </outline>
</glyph>
<glyph name="a" format="1">
  <advance width="1142"/>
  <unicode hex="0061"/>
  <outline>
    <contour>
      <point x="494" y="165" type="curve" smooth="yes"/>
      <point x="624" y="165"/>
      <point x="714" y="239"/>
      <point x="749" y="314" type="curve" smooth="no"/>
      <point x="749" y="526" type="line" smooth="no"/>
      <point x="743" y="526"/>
      <point x="650" y="518"/>
      <point x="643" y="518" type="curve" smooth="yes"/>
      <point x="443" y="500"/>
      <point x="336" y="452"/>
      <point x="336" y="310" type="curve" smooth="yes"/>
      <point x="336" y="216"/>
      <point x="393" y="165"/>
    </contour>
    <contour>
      <point x="423" y="-21" type="curve" smooth="yes"/>
      <point x="228" y="-21"/>
      <point x="81" y="87"/>
      <point x="81" y="307" type="curve" smooth="yes"/>
      <point x="81" y="545"/>
      <point x="245" y="637"/>
      <point x="531" y="665" type="curve" smooth="no"/>
      <point x="601" y="674"/>
      <point x="674" y="680"/>
      <point x="750" y="688" type="curve" smooth="no"/>
      <point x="750" y="746" type="line" smooth="yes"/>
      <point x="750" y="881"/>
      <point x="687" y="937"/>
      <point x="564" y="937" type="curve" smooth="yes"/>
      <point x="463" y="937"/>
      <point x="338" y="902"/>
      <point x="233" y="862" type="curve" smooth="no"/>
      <point x="231" y="867"/>
      <point x="169" y="1038"/>
      <point x="167" y="1043" type="curve" smooth="no"/>
      <point x="291" y="1096"/>
      <point x="419" y="1126"/>
      <point x="587" y="1126" type="curve" smooth="yes"/>
      <point x="882" y="1126"/>
      <point x="1011" y="1007"/>
      <point x="1011" y="717" type="curve" smooth="yes"/>
      <point x="1011" y="0" type="line" smooth="no"/>
      <point x="817" y="0" type="line" smooth="no"/>
      <point x="816" y="7"/>
      <point x="775" y="127"/>
      <point x="774" y="134" type="curve" smooth="no"/>
      <point x="673" y="35"/>
      <point x="581" y="-21"/>
    </contour>
  </outline>
</glyph>
<glyph name="e" format="1">
  <advance width="1157"/>
  <unicode hex="0065"/>
  <outline>
    <contour>
      <point x="350" y="661" type="curve" smooth="no"/>
      <point x="830" y="661" type="line" smooth="no"/>
      <point x="830" y="841"/>
      <point x="743" y="939"/>
      <point x="600" y="939" type="curve" smooth="yes"/>
      <point x="473" y="939"/>
      <point x="364" y="854"/>
    </contour>
    <contour>
      <point x="641" y="-21" type="curve" smooth="yes"/>
      <point x="287" y="-21"/>
      <point x="81" y="195"/>
      <point x="81" y="553" type="curve" smooth="yes"/>
      <point x="81" y="900"/>
      <point x="277" y="1125"/>
      <point x="599" y="1126" type="curve" smooth="yes"/>
      <point x="908" y="1126"/>
      <point x="1077" y="913"/>
      <point x="1077" y="607" type="curve" smooth="yes"/>
      <point x="1077" y="573"/>
      <point x="1076" y="532"/>
      <point x="1076" y="496" type="curve" smooth="no"/>
      <point x="345" y="496" type="line" smooth="no"/>
      <point x="350" y="290"/>
      <point x="463" y="173"/>
      <point x="651" y="173" type="curve" smooth="yes"/>
      <point x="787" y="173"/>
      <point x="900" y="212"/>
      <point x="997" y="267" type="curve" smooth="no"/>
      <point x="1034" y="81" type="line" smooth="no"/>
      <point x="932" y="18"/>
      <point x="816" y="-21"/>
    </contour>
  </outline>
</glyph>
<glyph name="g" format="1">
  <advance width="1267"/>
  <unicode hex="0067"/>
  <outline>
    <contour>
      <point x="616" y="183" type="curve" smooth="yes"/>
      <point x="820" y="183"/>
      <point x="888" y="336"/>
      <point x="890" y="546" type="curve" smooth="yes"/>
      <point x="890" y="584" type="line" smooth="yes"/>
      <point x="887" y="799"/>
      <point x="800" y="924"/>
      <point x="629" y="926" type="curve" smooth="no"/>
      <point x="431" y="926"/>
      <point x="337" y="777"/>
      <point x="337" y="562" type="curve" smooth="yes"/>
      <point x="337" y="357"/>
      <point x="436" y="183"/>
    </contour>
    <contour>
      <point x="353" y="-492" type="line" smooth="no"/>
      <point x="338" y="-280" type="line" smooth="no"/>
      <point x="471" y="-280" type="line" smooth="yes"/>
      <point x="773" y="-280"/>
      <point x="886" y="-216"/>
      <point x="886" y="7" type="curve" smooth="yes"/>
      <point x="886" y="49"/>
      <point x="883" y="113"/>
      <point x="880" y="152" type="curve" smooth="no"/>
      <point x="820" y="69"/>
      <point x="750" y="0"/>
      <point x="574" y="0" type="curve" smooth="yes"/>
      <point x="284" y="0"/>
      <point x="75" y="230"/>
      <point x="75" y="562" type="curve" smooth="yes"/>
      <point x="75" y="925"/>
      <point x="299" y="1126"/>
      <point x="561" y="1126" type="curve" smooth="yes"/>
      <point x="723" y="1126"/>
      <point x="824" y="1063"/>
      <point x="890" y="965" type="curve" smooth="no"/>
      <point x="908" y="1099" type="line" smooth="no"/>
      <point x="1142" y="1099" type="line" smooth="no"/>
      <point x="1142" y="78" type="line" smooth="yes"/>
      <point x="1142" y="-289"/>
      <point x="1021" y="-492"/>
      <point x="504" y="-492" type="curve" smooth="yes"/>
    </contour>
  </outline>
</glyph>
<glyph name="k" format="1">
  <advance width="1173"/>
  <unicode hex="006b"/>
  <outline>
    <contour>
      <point x="133" y="0" type="line" smooth="no"/>
      <point x="133" y="1504" type="line" smooth="no"/>
      <point x="395" y="1521" type="line" smooth="no"/>
      <point x="395" y="846" type="line" smooth="no"/>
      <point x="389" y="624" type="line" smooth="no"/>
      <point x="392" y="627"/>
      <point x="427" y="661"/>
      <point x="431" y="665" type="curve" smooth="yes"/>
      <point x="553" y="810"/>
      <point x="707" y="959"/>
      <point x="842" y="1099" type="curve" smooth="no"/>
      <point x="1154" y="1099" type="line" smooth="no"/>
      <point x="702" y="631" type="line" smooth="no"/>
      <point x="1183" y="0" type="line" smooth="no"/>
      <point x="866" y="0" type="line" smooth="no"/>
      <point x="504" y="499" type="line" smooth="no"/>
      <point x="395" y="413" type="line" smooth="no"/>
      <point x="395" y="0" type="line" smooth="no"/>
    </contour>
  </outline>
</glyph>
<glyph name="l" format="1">
  <advance width="700"/>
  <unicode hex="006c"/>
  <outline>
    <contour>
      <point x="518" y="-15" type="curve" smooth="yes"/>
      <point x="215" y="-15"/>
      <point x="136" y="129"/>
      <point x="136" y="433" type="curve" smooth="yes"/>
      <point x="136" y="1504" type="line" smooth="no"/>
      <point x="398" y="1521" type="line" smooth="no"/>
      <point x="398" y="438" type="line" smooth="yes"/>
      <point x="398" y="243"/>
      <point x="433" y="185"/>
      <point x="569" y="185" type="curve" smooth="yes"/>
      <point x="608" y="185"/>
      <point x="647" y="189"/>
      <point x="696" y="196" type="curve" smooth="no"/>
      <point x="703" y="9" type="line" smooth="no"/>
      <point x="685" y="6"/>
      <point x="599" y="-15"/>
    </contour>
  </outline>
</glyph>
<glyph name="m" format="1">
  <advance width="1911"/>
  <unicode hex="006d"/>
  <outline>
    <contour>
      <point x="133" y="0" type="line" smooth="no"/>
      <point x="133" y="1099" type="line" smooth="no"/>
      <point x="345" y="1099" type="line" smooth="no"/>
      <point x="375" y="959" type="line" smooth="no"/>
      <point x="429" y="1028"/>
      <point x="524" y="1126"/>
      <point x="738" y="1126" type="curve" smooth="yes"/>
      <point x="931" y="1126"/>
      <point x="1023" y="1026"/>
      <point x="1058" y="949" type="curve" smooth="no"/>
      <point x="1137" y="1062"/>
      <point x="1266" y="1126"/>
      <point x="1420" y="1126" type="curve" smooth="yes"/>
      <point x="1677" y="1126"/>
      <point x="1786" y="976"/>
      <point x="1786" y="702" type="curve" smooth="yes"/>
      <point x="1786" y="0" type="line" smooth="no"/>
      <point x="1523" y="0" type="line" smooth="no"/>
      <point x="1523" y="624" type="line" smooth="yes"/>
      <point x="1523" y="825"/>
      <point x="1492" y="928"/>
      <point x="1352" y="928" type="curve" smooth="yes"/>
      <point x="1247" y="928"/>
      <point x="1173" y="875"/>
      <point x="1132" y="790" type="curve" smooth="yes"/>
      <point x="1112" y="747"/>
      <point x="1100" y="697"/>
      <point x="1094" y="643" type="curve" smooth="no"/>
      <point x="1094" y="0" type="line" smooth="no"/>
      <point x="832" y="0" type="line" smooth="no"/>
      <point x="832" y="636" type="line" smooth="yes"/>
      <point x="832" y="817"/>
      <point x="796" y="927"/>
      <point x="652" y="927" type="curve" smooth="yes"/>
      <point x="535" y="927"/>
      <point x="457" y="859"/>
      <point x="418" y="775" type="curve" smooth="no"/>
      <point x="403" y="709"/>
      <point x="395" y="629"/>
      <point x="395" y="533" type="curve" smooth="yes"/>
      <point x="395" y="0" type="line" smooth="no"/>
    </contour>
  </outline>
</glyph>
<glyph name="q" format="1">
  <advance width="1259"/>
  <unicode hex="0071"/>
  <outline>
    <contour>
      <point x="606" y="177" type="curve" smooth="yes"/>
      <point x="771" y="177"/>
      <point x="869" y="279"/>
      <point x="872" y="535" type="curve" smooth="no"/>
      <point x="872" y="812"/>
      <point x="778" y="926"/>
      <point x="603" y="926" type="curve" smooth="yes"/>
      <point x="448" y="926"/>
      <point x="343" y="808"/>
      <point x="343" y="552" type="curve" smooth="yes"/>
      <point x="343" y="302"/>
      <point x="445" y="177"/>
    </contour>
    <contour>
      <point x="862" y="-457" type="line" smooth="no"/>
      <point x="862" y="8" type="line" smooth="yes"/>
      <point x="862" y="51"/>
      <point x="864" y="98"/>
      <point x="869" y="150" type="curve" smooth="no"/>
      <point x="835" y="94"/>
      <point x="752" y="-22"/>
      <point x="555" y="-22" type="curve" smooth="yes"/>
      <point x="269" y="-22"/>
      <point x="82" y="215"/>
      <point x="82" y="555" type="curve" smooth="yes"/>
      <point x="82" y="886"/>
      <point x="247" y="1126"/>
      <point x="549" y="1126" type="curve" smooth="yes"/>
      <point x="724" y="1126"/>
      <point x="823" y="1038"/>
      <point x="874" y="959" type="curve" smooth="no"/>
      <point x="895" y="1099" type="line" smooth="no"/>
      <point x="1125" y="1099" type="line" smooth="no"/>
      <point x="1125" y="-444" type="line" smooth="no"/>
    </contour>
  </outline>
</glyph>
<glyph name="r" format="1">
  <advance width="798"/>
  <unicode hex="0072"/>
  <outline>
    <contour>
      <point x="134" y="0" type="line" smooth="no"/>
      <point x="134" y="1099" type="line" smooth="no"/>
      <point x="354" y="1099" type="line" smooth="no"/>
      <point x="388" y="931" type="line" smooth="no"/>
      <point x="458" y="1043"/>
      <point x="564" y="1104"/>
      <point x="701" y="1104" type="curve" smooth="yes"/>
      <point x="727" y="1104"/>
      <point x="751" y="1103"/>
      <point x="771" y="1100" type="curve" smooth="no"/>
      <point x="767" y="881" type="line" smooth="no"/>
      <point x="740" y="885"/>
      <point x="712" y="887"/>
      <point x="684" y="887" type="curve" smooth="yes"/>
      <point x="484" y="887"/>
      <point x="396" y="772"/>
      <point x="396" y="596" type="curve" smooth="yes"/>
      <point x="396" y="0" type="line" smooth="no"/>
    </contour>
  </outline>
</glyph>
<glyph name="t" format="1">
  <advance width="803"/>
  <unicode hex="0074"/>
  <outline>
    <contour>
      <point x="572" y="-15" type="curve" smooth="yes"/>
      <point x="270" y="-15"/>
      <point x="193" y="130"/>
      <point x="192" y="421" type="curve" smooth="yes"/>
      <point x="192" y="940" type="line" smooth="no"/>
      <point x="12" y="940" type="line" smooth="no"/>
      <point x="22" y="1082" type="line" smooth="no"/>
      <point x="210" y="1099" type="line" smooth="no"/>
      <point x="294" y="1397" type="line" smooth="no"/>
      <point x="454" y="1398" type="line" smooth="no"/>
      <point x="454" y="1099" type="line" smooth="no"/>
      <point x="727" y="1099" type="line" smooth="no"/>
      <point x="727" y="940" type="line" smooth="no"/>
      <point x="454" y="940" type="line" smooth="no"/>
      <point x="454" y="416" type="line" smooth="yes"/>
      <point x="454" y="255"/>
      <point x="489" y="185"/>
      <point x="623" y="185" type="curve" smooth="yes"/>
      <point x="670" y="185"/>
      <point x="732" y="193"/>
      <point x="745" y="195" type="curve" smooth="no"/>
      <point x="752" y="7" type="line" smooth="no"/>
      <point x="733" y="4"/>
      <point x="653" y="-15"/>
    </contour>
  </outline>
</glyph>
<glyph name="w" format="1">
  <advance width="1713"/>
  <unicode hex="0077"/>
  <outline>
    <contour>
      <point x="346" y="0" type="line" smooth="no"/>
      <point x="13" y="1099" type="line" smooth="no"/>
      <point x="280" y="1099" type="line" smooth="no"/>
      <point x="491" y="293" type="line" smooth="no"/>
      <point x="514" y="369"/>
      <point x="702" y="1025"/>
      <point x="726" y="1099" type="curve" smooth="no"/>
      <point x="995" y="1099" type="line" smooth="no"/>
      <point x="1018" y="1025"/>
      <point x="1198" y="371"/>
      <point x="1220" y="296" type="curve" smooth="no"/>
      <point x="1437" y="1099" type="line" smooth="no"/>
      <point x="1700" y="1099" type="line" smooth="no"/>
      <point x="1356" y="0" type="line" smooth="no"/>
      <point x="1095" y="0" type="line" smooth="no"/>
      <point x="1071" y="77"/>
      <point x="879" y="780"/>
      <point x="856" y="858" type="curve" smooth="no"/>
      <point x="834" y="779"/>
      <point x="629" y="76"/>
      <point x="604" y="0" type="curve" smooth="no"/>
    </contour>
  </outline>
</glyph>
<glyph name="sterling" format="1">
  <advance width="1149"/>
  <unicode hex="00a3"/>
  <outline>
    <contour>
      <point x="85" y="0" type="line" smooth="no"/>
      <point x="69" y="190" type="line" smooth="no"/>
      <point x="202" y="246"/>
      <point x="252" y="313"/>
      <point x="252" y="469" type="curve" smooth="yes"/>
      <point x="252" y="659" type="line" smooth="no"/>
      <point x="67" y="659" type="line" smooth="no"/>
      <point x="67" y="838" type="line" smooth="no"/>
      <point x="252" y="838" type="line" smooth="no"/>
      <point x="252" y="943" type="line" smooth="yes"/>
      <point x="252" y="1261"/>
      <point x="374" y="1487"/>
      <point x="703" y="1487" type="curve" smooth="yes"/>
      <point x="861" y="1487"/>
      <point x="988" y="1431"/>
      <point x="1088" y="1347" type="curve" smooth="no"/>
      <point x="985" y="1178" type="line" smooth="no"/>
      <point x="897" y="1237"/>
      <point x="815" y="1278"/>
      <point x="713" y="1278" type="curve" smooth="yes"/>
      <point x="561" y="1278"/>
      <point x="501" y="1179"/>
      <point x="501" y="1017" type="curve" smooth="yes"/>
      <point x="501" y="838" type="line" smooth="no"/>
      <point x="892" y="838" type="line" smooth="no"/>
      <point x="892" y="659" type="line" smooth="no"/>
      <point x="501" y="659" type="line" smooth="no"/>
      <point x="501" y="509" type="line" smooth="yes"/>
      <point x="501" y="382"/>
      <point x="471" y="283"/>
      <point x="389" y="213" type="curve" smooth="no"/>
      <point x="397" y="214"/>
      <point x="528" y="214"/>
      <point x="536" y="214" type="curve" smooth="yes"/>
      <point x="1105" y="214" type="line" smooth="no"/>
      <point x="1097" y="0" type="line" smooth="no"/>
    </contour>
  </outline>
</glyph>
<glyph name="brokenbar" format="1">
  <advance width="817"/>
  <unicode hex="00a6"/>
  <outline>
    <contour>
      <point x="306" y="820" type="line" smooth="no"/>
      <point x="306" y="1538" type="line" smooth="no"/>
      <point x="509" y="1538" type="line" smooth="no"/>
      <point x="509" y="820" type="line" smooth="no"/>
    </contour>
    <contour>
      <point x="306" y="-379" type="line" smooth="no"/>
      <point x="306" y="340" type="line" smooth="no"/>
      <point x="509" y="340" type="line" smooth="no"/>
      <point x="509" y="-379" type="line" smooth="no"/>
    </contour>
  </outline>
</glyph>
<glyph name="uni00AD" format="1">
  <advance width="745"/>
  <unicode hex="00ad"/>
  <outline>
    <contour>
      <point x="76" y="380" type="line" smooth="no"/>
      <point x="76" y="584" type="line" smooth="no"/>
      <point x="671" y="584" type="line" smooth="no"/>
      <point x="671" y="380" type="line" smooth="no"/>
    </contour>
  </outline>
</glyph>
<glyph name="plusminus" format="1">
  <advance width="1288"/>
  <unicode hex="00b1"/>
  <outline>
    <contour>
      <point x="180" y="0" type="line" smooth="no"/>
      <point x="180" y="177" type="line" smooth="no"/>
      <point x="1109" y="177" type="line" smooth="no"/>
      <point x="1109" y="0" type="line" smooth="no"/>
    </contour>
    <contour>
      <point x="544" y="261" type="line" smooth="no"/>
      <point x="544" y="636" type="line" smooth="no"/>
      <point x="180" y="636" type="line" smooth="no"/>
      <point x="180" y="828" type="line" smooth="no"/>
      <point x="544" y="828" type="line" smooth="no"/>
      <point x="544" y="1196" type="line" smooth="no"/>
      <point x="743" y="1196" type="line" smooth="no"/>
      <point x="743" y="828" type="line" smooth="no"/>
      <point x="1109" y="828" type="line" smooth="no"/>
      <point x="1109" y="636" type="line" smooth="no"/>
      <point x="744" y="636" type="line" smooth="no"/>
      <point x="744" y="261" type="line" smooth="no"/>
    </contour>
  </outline>
</glyph>
<glyph name="acute" format="1">
  <advance width="619"/>
  <unicode hex="00b4"/>
  <outline>
    <contour>
      <point x="191" y="1195" type="line" smooth="no"/>
      <point x="362" y="1578" type="line" smooth="no"/>
      <point x="661" y="1578" type="line" smooth="no"/>
      <point x="346" y="1195" type="line" smooth="no"/>
    </contour>
  </outline>
</glyph>
<glyph name="cedilla" format="1">
  <advance width="589"/>
  <unicode hex="00b8"/>
  <outline>
    <contour>
      <point x="62" y="-357" type="line" smooth="no"/>
      <point x="185" y="24" type="line" smooth="no"/>
      <point x="329" y="24" type="line" smooth="no"/>
      <point x="271" y="-357" type="line" smooth="no"/>
    </contour>
  </outline>
</glyph>
<glyph name="ordmasculine" format="1">
  <advance width="865"/>
  <unicode hex="00ba"/>
  <outline>
    <contour>
      <point x="439" y="744" type="curve" smooth="yes"/>
      <point x="203" y="744"/>
      <point x="69" y="903"/>
      <point x="69" y="1131" type="curve" smooth="yes"/>
      <point x="69" y="1354"/>
      <point x="209" y="1512"/>
      <point x="438" y="1512" type="curve" smooth="yes"/>
      <point x="669" y="1512"/>
      <point x="803" y="1352"/>
      <point x="803" y="1127" type="curve" smooth="yes"/>
      <point x="803" y="906"/>
      <point x="666" y="744"/>
    </contour>
    <contour>
      <point x="439" y="899" type="curve" smooth="yes"/>
      <point x="570" y="899"/>
      <point x="629" y="995"/>
      <point x="629" y="1125" type="curve" smooth="yes"/>
      <point x="629" y="1261"/>
      <point x="569" y="1358"/>
      <point x="435" y="1358" type="curve" smooth="yes"/>
      <point x="304" y="1358"/>
      <point x="245" y="1259"/>
      <point x="245" y="1129" type="curve" smooth="yes"/>
      <point x="245" y="993"/>
      <point x="303" y="899"/>
    </contour>
  </outline>
</glyph>
<glyph name="germandbls" format="1">
  <advance width="1259"/>
  <unicode hex="00df"/>
  <outline>
    <contour>
      <point x="108" y="0" type="line" smooth="no"/>
      <point x="108" y="1024" type="line" smooth="yes"/>
      <point x="108" y="1317"/>
      <point x="274" y="1490"/>
      <point x="583" y="1490" type="curve" smooth="yes"/>
      <point x="826" y="1490"/>
      <point x="1035" y="1377"/>
      <point x="1035" y="1144" type="curve" smooth="yes"/>
      <point x="1035" y="965"/>
      <point x="881" y="877"/>
      <point x="755" y="799" type="curve" smooth="no"/>
      <point x="931" y="700"/>
      <point x="1202" y="592"/>
      <point x="1202" y="344" type="curve" smooth="yes"/>
      <point x="1202" y="107"/>
      <point x="1026" y="0"/>
      <point x="794" y="0" type="curve" smooth="yes"/>
      <point x="502" y="0" type="line" smooth="yes"/>
      <point x="503" y="0"/>
      <point x="527" y="179"/>
      <point x="527" y="179" type="curve" smooth="no"/>
      <point x="767" y="179" type="line" smooth="yes"/>
      <point x="880" y="179"/>
      <point x="943" y="244"/>
      <point x="943" y="345" type="curve" smooth="yes"/>
      <point x="943" y="507"/>
      <point x="732" y="575"/>
      <point x="589" y="663" type="curve" smooth="yes"/>
      <point x="548" y="688"/>
      <point x="502" y="727"/>
      <point x="502" y="786" type="curve" smooth="yes"/>
      <point x="502" y="837"/>
      <point x="536" y="875"/>
      <point x="573" y="903" type="curve" smooth="yes"/>
      <point x="666" y="973"/>
      <point x="785" y="1026"/>
      <point x="785" y="1144" type="curve" smooth="yes"/>
      <point x="785" y="1243"/>
      <point x="699" y="1299"/>
      <point x="582" y="1299" type="curve" smooth="yes"/>
      <point x="402" y="1299"/>
      <point x="363" y="1188"/>
      <point x="363" y="1016" type="curve" smooth="yes"/>
      <point x="363" y="0" type="line" smooth="no"/>
    </contour>
  </outline>
</glyph>
<glyph name="ae" format="1">
  <advance width="1679"/>
  <unicode hex="00e6"/>
  <outline>
    <contour>
      <point x="944" y="644" type="curve" smooth="no"/>
      <point x="1380" y="683" type="line" smooth="no"/>
      <point x="1380" y="683"/>
      <point x="1382" y="697"/>
      <point x="1382" y="714" type="curve" smooth="yes"/>
      <point x="1381" y="821"/>
      <point x="1351" y="944"/>
      <point x="1207" y="944" type="curve" smooth="yes"/>
      <point x="1089" y="944"/>
      <point x="960" y="874"/>
    </contour>
    <contour>
      <point x="449" y="150" type="curve" smooth="yes"/>
      <point x="553" y="150"/>
      <point x="658" y="207"/>
      <point x="744" y="273" type="curve" smooth="no"/>
      <point x="733" y="295"/>
      <point x="699" y="397"/>
      <point x="698" y="475" type="curve" smooth="no"/>
      <point x="692" y="475"/>
      <point x="612" y="464"/>
      <point x="607" y="464" type="curve" smooth="yes"/>
      <point x="408" y="440"/>
      <point x="306" y="414"/>
      <point x="306" y="305" type="curve" smooth="yes"/>
      <point x="306" y="205"/>
      <point x="356" y="150"/>
    </contour>
    <contour>
      <point x="411" y="-22" type="curve" smooth="yes"/>
      <point x="203" y="-22"/>
      <point x="72" y="125"/>
      <point x="72" y="317" type="curve" smooth="yes"/>
      <point x="72" y="559"/>
      <point x="279" y="587"/>
      <point x="608" y="623" type="curve" smooth="no"/>
      <point x="693" y="630" type="line" smooth="no"/>
      <point x="693" y="747" type="line" smooth="yes"/>
      <point x="693" y="878"/>
      <point x="655" y="944"/>
      <point x="507" y="949" type="curve" smooth="no"/>
      <point x="378" y="949"/>
      <point x="240" y="896"/>
      <point x="183" y="872" type="curve" smooth="no"/>
      <point x="134" y="1052" type="line" smooth="no"/>
      <point x="229" y="1097"/>
      <point x="349" y="1135"/>
      <point x="523" y="1135" type="curve" smooth="yes"/>
      <point x="690" y="1135"/>
      <point x="809" y="1073"/>
      <point x="848" y="959" type="curve" smooth="no"/>
      <point x="920" y="1059"/>
      <point x="1050" y="1135"/>
      <point x="1209" y="1135" type="curve" smooth="yes"/>
      <point x="1500" y="1135"/>
      <point x="1613" y="895"/>
      <point x="1613" y="625" type="curve" smooth="yes"/>
      <point x="1613" y="565"/>
      <point x="1557" y="541"/>
      <point x="1456" y="537" type="curve" smooth="yes"/>
      <point x="1420" y="535"/>
      <point x="1039" y="508"/>
      <point x="941" y="500" type="curve" smooth="no"/>
      <point x="950" y="288"/>
      <point x="1047" y="169"/>
      <point x="1232" y="168" type="curve" smooth="yes"/>
      <point x="1361" y="168"/>
      <point x="1468" y="210"/>
      <point x="1519" y="249" type="curve" smooth="no"/>
      <point x="1591" y="87" type="line" smooth="no"/>
      <point x="1504" y="24"/>
      <point x="1397" y="-21"/>
      <point x="1216" y="-21" type="curve" smooth="yes"/>
      <point x="1030" y="-21"/>
      <point x="916" y="41"/>
      <point x="837" y="138" type="curve" smooth="no"/>
      <point x="744" y="53"/>
      <point x="604" y="-22"/>
    </contour>
  </outline>
</glyph>
<glyph name="oslash" format="1">
  <advance width="1193"/>
  <unicode hex="00f8"/>
  <outline>
    <contour>
      <point x="599" y="163" type="curve" smooth="yes"/>
      <point x="780" y="163"/>
      <point x="878" y="307"/>
      <point x="878" y="551" type="curve" smooth="yes"/>
      <point x="878" y="693"/>
      <point x="846" y="802"/>
      <point x="783" y="867" type="curve" smooth="no"/>
      <point x="482" y="188" type="line" smooth="no"/>
      <point x="516" y="171"/>
      <point x="555" y="163"/>
    </contour>
    <contour>
      <point x="420" y="231" type="curve" smooth="no"/>
      <point x="721" y="913" type="line" smooth="no"/>
      <point x="686" y="931"/>
      <point x="645" y="940"/>
      <point x="598" y="940" type="curve" smooth="yes"/>
      <point x="419" y="940"/>
      <point x="318" y="799"/>
      <point x="318" y="551" type="curve" smooth="yes"/>
      <point x="318" y="406"/>
      <point x="353" y="296"/>
    </contour>
    <contour>
      <point x="302" y="-215" type="line" smooth="no"/>
      <point x="240" y="-181" type="line" smooth="no"/>
      <point x="336" y="41" type="line" smooth="no"/>
      <point x="163" y="130"/>
      <point x="71" y="316"/>
      <point x="71" y="550" type="curve" smooth="yes"/>
      <point x="71" y="888"/>
      <point x="256" y="1119"/>
      <point x="601" y="1119" type="curve" smooth="yes"/>
      <point x="675" y="1119"/>
      <point x="741" y="1108"/>
      <point x="800" y="1089" type="curve" smooth="no"/>
      <point x="894" y="1269" type="line" smooth="no"/>
      <point x="963" y="1246" type="line" smooth="no"/>
      <point x="870" y="1059" type="line" smooth="no"/>
      <point x="1038" y="970"/>
      <point x="1125" y="787"/>
      <point x="1125" y="552" type="curve" smooth="yes"/>
      <point x="1125" y="220"/>
      <point x="942" y="-16"/>
      <point x="595" y="-16" type="curve" smooth="yes"/>
      <point x="525" y="-16"/>
      <point x="460" y="-6"/>
      <point x="403" y="14" type="curve" smooth="no"/>
    </contour>
  </outline>
</glyph>
<glyph name="OE" format="1">
  <advance width="2176"/>
  <unicode hex="0152"/>
  <outline>
    <contour>
      <point x="813" y="188" type="curve" smooth="yes"/>
      <point x="973" y="188"/>
      <point x="1100" y="243"/>
      <point x="1168" y="305" type="curve" smooth="no"/>
      <point x="1168" y="1153" type="line" smooth="no"/>
      <point x="1093" y="1228"/>
      <point x="974" y="1283"/>
      <point x="811" y="1283" type="curve" smooth="yes"/>
      <point x="507" y="1283"/>
      <point x="345" y="1021"/>
      <point x="343" y="735" type="curve" smooth="no"/>
      <point x="343" y="447"/>
      <point x="494" y="189"/>
    </contour>
    <contour>
      <point x="815" y="-19" type="curve" smooth="yes"/>
      <point x="382" y="-19"/>
      <point x="81" y="298"/>
      <point x="81" y="738" type="curve" smooth="no"/>
      <point x="83" y="1173"/>
      <point x="394" y="1490"/>
      <point x="809" y="1490" type="curve" smooth="yes"/>
      <point x="953" y="1490"/>
      <point x="1074" y="1448"/>
      <point x="1168" y="1384" type="curve" smooth="no"/>
      <point x="1168" y="1461" type="line" smooth="no"/>
      <point x="2101" y="1461" type="line" smooth="no"/>
      <point x="2083" y="1256" type="line" smooth="no"/>
      <point x="1425" y="1256" type="line" smooth="no"/>
      <point x="1425" y="863" type="line" smooth="no"/>
      <point x="2052" y="863" type="line" smooth="no"/>
      <point x="2052" y="661" type="line" smooth="no"/>
      <point x="1425" y="661" type="line" smooth="no"/>
      <point x="1425" y="209" type="line" smooth="no"/>
      <point x="2130" y="209" type="line" smooth="no"/>
      <point x="2113" y="4" type="line" smooth="no"/>
      <point x="1168" y="4" type="line" smooth="no"/>
      <point x="1168" y="85" type="line" smooth="no"/>
      <point x="1082" y="25"/>
      <point x="951" y="-19"/>
    </contour>
  </outline>
</glyph>
<glyph name="circumflex" format="1">
  <advance width="775"/>
  <unicode hex="02c6"/>
  <outline>
    <contour>
      <point x="47" y="1163" type="line" smooth="no"/>
      <point x="297" y="1546" type="line" smooth="no"/>
      <point x="505" y="1546" type="line" smooth="no"/>
      <point x="756" y="1163" type="line" smooth="no"/>
      <point x="572" y="1163" type="line" smooth="no"/>
      <point x="398" y="1381" type="line" smooth="no"/>
      <point x="226" y="1163" type="line" smooth="no"/>
    </contour>
  </outline>
</glyph>
<glyph name="ogonek" format="1">
  <advance width="577"/>
  <unicode hex="02db"/>
  <outline>
    <contour>
      <point x="321" y="-392" type="curve" smooth="yes"/>
      <point x="208" y="-392"/>
      <point x="114" y="-338"/>
      <point x="114" y="-220" type="curve" smooth="yes"/>
      <point x="114" y="-91"/>
      <point x="224" y="-12"/>
      <point x="305" y="34" type="curve" smooth="no"/>
      <point x="413" y="34" type="line" smooth="no"/>
      <point x="327" y="-30"/>
      <point x="289" y="-102"/>
      <point x="289" y="-165" type="curve" smooth="yes"/>
      <point x="289" y="-207"/>
      <point x="319" y="-252"/>
      <point x="371" y="-252" type="curve" smooth="yes"/>
      <point x="432" y="-252"/>
      <point x="500" y="-220"/>
      <point x="513" y="-215" type="curve" smooth="no"/>
      <point x="513" y="-355" type="line" smooth="no"/>
      <point x="454" y="-378"/>
      <point x="385" y="-392"/>
    </contour>
  </outline>
</glyph>
<glyph name="uni030F" format="1">
  <advance width="982"/>
  <unicode hex="030f"/>
  <outline>
    <contour>
      <point x="680" y="1197" type="line" smooth="no"/>
      <point x="383" y="1536" type="line" smooth="no"/>
      <point x="641" y="1536" type="line" smooth="no"/>
      <point x="868" y="1197" type="line" smooth="no"/>
    </contour>
    <contour>
      <point x="316" y="1197" type="line" smooth="no"/>
      <point x="1" y="1536" type="line" smooth="no"/>
      <point x="276" y="1536" type="line" smooth="no"/>
      <point x="487" y="1197" type="line" smooth="no"/>
    </contour>
  </outline>
</glyph>
<glyph name="endash" format="1">
  <advance width="1271"/>
  <unicode hex="2013"/>
  <outline>
    <contour>
      <point x="89" y="461" type="line" smooth="no"/>
      <point x="89" y="646" type="line" smooth="no"/>
      <point x="1188" y="646" type="line" smooth="no"/>
      <point x="1188" y="461" type="line" smooth="no"/>
    </contour>
  </outline>
</glyph>
<glyph name="quotedblbase" format="1">
  <advance width="1005"/>
  <unicode hex="201e"/>
  <outline>
    <contour>
      <point x="512" y="-280" type="line" smooth="no"/>
      <point x="630" y="212" type="line" smooth="no"/>
      <point x="855" y="212" type="line" smooth="no"/>
      <point x="692" y="-280" type="line" smooth="no"/>
    </contour>
    <contour>
      <point x="158" y="-280" type="line" smooth="no"/>
      <point x="269" y="212" type="line" smooth="no"/>
      <point x="500" y="212" type="line" smooth="no"/>
      <point x="331" y="-280" type="line" smooth="no"/>
    </contour>
  </outline>
</glyph>
<glyph name="dagger" format="1">
  <advance width="979"/>
  <unicode hex="2020"/>
  <outline>
    <contour>
      <point x="384" y="115" type="line" smooth="no"/>
      <point x="384" y="970" type="line" smooth="no"/>
      <point x="67" y="970" type="line" smooth="no"/>
      <point x="67" y="1139" type="line" smooth="no"/>
      <point x="384" y="1139" type="line" smooth="no"/>
      <point x="384" y="1486" type="line" smooth="no"/>
      <point x="582" y="1486" type="line" smooth="no"/>
      <point x="582" y="1139" type="line" smooth="no"/>
      <point x="916" y="1139" type="line" smooth="no"/>
      <point x="916" y="970" type="line" smooth="no"/>
      <point x="572" y="970" type="line" smooth="no"/>
      <point x="572" y="115" type="line" smooth="no"/>
    </contour>
  </outline>
</glyph>
<glyph name="bullet" format="1">
  <advance width="995"/>
  <unicode hex="2022"/>
  <outline>
    <contour>
      <point x="497" y="355" type="curve" smooth="yes"/>
      <point x="291" y="355"/>
      <point x="143" y="500"/>
      <point x="143" y="692" type="curve" smooth="yes"/>
      <point x="143" y="886"/>
      <point x="298" y="1037"/>
      <point x="503" y="1037" type="curve" smooth="yes"/>
      <point x="707" y="1037"/>
      <point x="856" y="891"/>
      <point x="856" y="699" type="curve" smooth="yes"/>
      <point x="856" y="504"/>
      <point x="703" y="355"/>
    </contour>
  </outline>
</glyph>
<glyph name="fraction" format="1">
  <advance width="1179"/>
  <unicode hex="2044"/>
  <outline>
    <contour>
      <point x="41" y="0" type="line" smooth="no"/>
      <point x="941" y="1471" type="line" smooth="no"/>
      <point x="1137" y="1471" type="line" smooth="no"/>
      <point x="239" y="0" type="line" smooth="no"/>
    </contour>
  </outline>
</glyph>
<glyph name="uni2074" format="1">
  <advance width="867"/>
  <unicode hex="2074"/>
  <outline>
    <contour>
      <point x="284" y="953" type="line" smooth="no"/>
      <point x="434" y="953" type="line" smooth="no"/>
      <point x="434" y="1197" type="line" smooth="no"/>
    </contour>
    <contour>
      <point x="436" y="627" type="line" smooth="no"/>
      <point x="436" y="800" type="line" smooth="no"/>
      <point x="84" y="800" type="line" smooth="no"/>
      <point x="84" y="919" type="line" smooth="no"/>
      <point x="435" y="1446" type="line" smooth="no"/>
      <point x="595" y="1446" type="line" smooth="no"/>
      <point x="595" y="953" type="line" smooth="no"/>
      <point x="697" y="953" type="line" smooth="no"/>
      <point x="711" y="800" type="line" smooth="no"/>
      <point x="594" y="800" type="line" smooth="no"/>
      <point x="593" y="627" type="line" smooth="no"/>
    </contour>
  </outline>
</glyph>
<glyph name="trademark" format="1">
  <advance width="1822"/>
  <unicode hex="2122"/>
  <outline>
    <contour>
      <point x="322" y="667" type="line" smooth="no"/>
      <point x="322" y="1324" type="line" smooth="no"/>
      <point x="71" y="1324" type="line" smooth="no"/>
      <point x="70" y="1470" type="line" smooth="no"/>
      <point x="735" y="1470" type="line" smooth="no"/>
      <point x="735" y="1324" type="line" smooth="no"/>
      <point x="489" y="1324" type="line" smooth="no"/>
      <point x="489" y="667" type="line" smooth="no"/>
    </contour>
    <contour>
      <point x="801" y="667" type="line" smooth="no"/>
      <point x="801" y="1470" type="line" smooth="no"/>
      <point x="1017" y="1470" type="line" smooth="no"/>
      <point x="1235" y="923" type="line" smooth="no"/>
      <point x="1463" y="1470" type="line" smooth="no"/>
      <point x="1663" y="1470" type="line" smooth="no"/>
      <point x="1663" y="667" type="line" smooth="no"/>
      <point x="1502" y="667" type="line" smooth="no"/>
      <point x="1502" y="1216" type="line" smooth="no"/>
      <point x="1280" y="685" type="line" smooth="no"/>
      <point x="1175" y="685" type="line" smooth="no"/>
      <point x="965" y="1210" type="line" smooth="no"/>
      <point x="965" y="667" type="line" smooth="no"/>
    </contour>
  </outline>
</glyph>
<glyph name="uni2206" format="1">
  <advance width="1277"/>
  <unicode hex="2206"/>
  <outline>
    <contour>
      <point x="281" y="329" type="line" smooth="no"/>
      <point x="1002" y="328" type="line" smooth="no"/>
      <point x="644" y="1296" type="line" smooth="no"/>
    </contour>
    <contour>
      <point x="97" y="168" type="line" smooth="no"/>
      <point x="97" y="288" type="line" smooth="no"/>
      <point x="569" y="1495" type="line" smooth="no"/>
      <point x="719" y="1495" type="line" smooth="no"/>
      <point x="1187" y="289" type="line" smooth="no"/>
      <point x="1186" y="168" type="line" smooth="no"/>
    </contour>
  </outline>
</glyph>
<glyph name="greaterequal" format="1">
  <advance width="1224"/>
  <unicode hex="2265"/>
  <outline>
    <contour>
      <point x="145" y="2" type="line" smooth="no"/>
      <point x="145" y="158" type="line" smooth="no"/>
      <point x="1094" y="157" type="line" smooth="no"/>
      <point x="1094" y="2" type="line" smooth="no"/>
    </contour>
    <contour>
      <point x="151" y="225" type="line" smooth="no"/>
      <point x="151" y="415" type="line" smooth="no"/>
      <point x="850" y="743" type="line" smooth="no"/>
      <point x="152" y="1084" type="line" smooth="no"/>
      <point x="152" y="1274" type="line" smooth="no"/>
      <point x="1090" y="801" type="line" smooth="no"/>
      <point x="1090" y="686" type="line" smooth="no"/>
    </contour>
  </outline>
</glyph>
<glyph name="uniFB00" format="1">
  <advance width="1485"/>
  <unicode hex="fb00"/>
  <outline>
    <contour>
      <point x="203" y="0" type="line" smooth="no"/>
      <point x="203" y="925" type="line" smooth="no"/>
      <point x="29" y="925" type="line" smooth="no"/>
      <point x="46" y="1079" type="line" smooth="no"/>
      <point x="203" y="1099" type="line" smooth="no"/>
      <point x="203" y="1160" type="line" smooth="no"/>
      <point x="204" y="1419"/>
      <point x="292" y="1552"/>
      <point x="568" y="1552" type="curve" smooth="yes"/>
      <point x="635" y="1552"/>
      <point x="706" y="1545"/>
      <point x="772" y="1533" type="curve" smooth="no"/>
      <point x="749" y="1338" type="line" smooth="no"/>
      <point x="704" y="1344"/>
      <point x="658" y="1349"/>
      <point x="620" y="1349" type="curve" smooth="yes"/>
      <point x="507" y="1349"/>
      <point x="465" y="1299"/>
      <point x="465" y="1174" type="curve" smooth="yes"/>
      <point x="465" y="1099" type="line" smooth="no"/>
      <point x="944" y="1099" type="line" smooth="no"/>
      <point x="944" y="1160" type="line" smooth="yes"/>
      <point x="944" y="1419"/>
      <point x="1033" y="1552"/>
      <point x="1309" y="1552" type="curve" smooth="yes"/>
      <point x="1375" y="1552"/>
      <point x="1446" y="1545"/>
      <point x="1513" y="1533" type="curve" smooth="no"/>
      <point x="1490" y="1338" type="line" smooth="no"/>
      <point x="1445" y="1344"/>
      <point x="1399" y="1349"/>
      <point x="1361" y="1349" type="curve" smooth="yes"/>
      <point x="1247" y="1349"/>
      <point x="1206" y="1299"/>
      <point x="1206" y="1174" type="curve" smooth="yes"/>
      <point x="1206" y="1099" type="line" smooth="no"/>
      <point x="1463" y="1099" type="line" smooth="no"/>
      <point x="1463" y="925" type="line" smooth="no"/>
      <point x="1206" y="925" type="line" smooth="no"/>
      <point x="1206" y="0" type="line" smooth="no"/>
      <point x="944" y="0" type="line" smooth="no"/>
      <point x="944" y="925" type="line" smooth="no"/>
      <point x="465" y="925" type="line" smooth="no"/>
      <point x="465" y="0" type="line" smooth="no"/>
    </contour>
  </outline>
</glyph>
